<?xml version="1.0" standalone="no"?>
<!DOCTYPE svg PUBLIC "-//W3C//DTD SVG 20010904//EN"
 "http://www.w3.org/TR/2001/REC-SVG-20010904/DTD/svg10.dtd">
<svg version="1.0" xmlns="http://www.w3.org/2000/svg"
 width="1920.000000pt" height="1920.000000pt" viewBox="0 0 1920.000000 1920.000000"
 preserveAspectRatio="xMidYMid meet">

<g transform="translate(0.000000,1920.000000) scale(0.100000,-0.100000)"
fill="#000000" stroke="none">
<path d="M9345 14355 c-387 -47 -768 -207 -1079 -453 -39 -30 -121 -105 -181
-166 -338 -340 -546 -772 -605 -1261 -15 -117 -14 -364 0 -485 88 -734 538
-1362 1205 -1681 803 -384 1776 -220 2410 406 521 515 737 1228 594 1955 -78
391 -284 775 -574 1066 -125 126 -210 195 -351 287 -201 132 -470 246 -702
297 -220 48 -494 62 -717 35z"/>
<path d="M9285 9224 c-307 -29 -527 -65 -760 -123 -744 -187 -1429 -568 -1974
-1096 -85 -82 -204 -206 -264 -275 -663 -756 -1051 -1727 -1084 -2712 l-6
-188 4403 0 4403 0 -6 188 c-20 579 -166 1172 -422 1707 -565 1183 -1632 2057
-2897 2375 -170 43 -373 80 -568 106 -118 15 -716 28 -825 18z"/>
</g>
</svg>
